<?xml version="1.0" standalone="no"?>
<!DOCTYPE svg PUBLIC "-//W3C//DTD SVG 20010904//EN"
 "http://www.w3.org/TR/2001/REC-SVG-20010904/DTD/svg10.dtd">
<svg version="1.0" xmlns="http://www.w3.org/2000/svg"
 width="616.000000pt" height="616.000000pt" viewBox="0 0 616.000000 616.000000"
 preserveAspectRatio="xMidYMid meet">
<metadata>
Created by potrace 1.14, written by Peter Selinger 2001-2017
</metadata>
<g transform="translate(0.000000,616.000000) scale(0.100000,-0.100000)"
fill="#000000" stroke="none">
<path d="M2509 6149 c-79 -9 -174 -56 -234 -116 -85 -85 -126 -193 -120 -316
5 -130 42 -194 220 -382 66 -69 121 -130 123 -134 1 -4 -35 -40 -80 -80 -86
-77 -224 -202 -312 -283 l-51 -47 -58 62 c-151 162 -203 209 -262 238 -33 16
-71 32 -85 35 -290 62 -549 -172 -509 -462 16 -121 45 -164 237 -366 l64 -66
-48 -44 c-26 -23 -59 -54 -74 -68 -15 -14 -67 -61 -116 -105 -48 -44 -113
-104 -144 -132 -109 -101 -120 -106 -144 -72 -38 55 -183 192 -225 213 -129
65 -271 67 -392 6 -162 -83 -251 -281 -210 -463 21 -88 57 -145 172 -265 l73
-75 -70 -65 c-168 -157 -185 -176 -219 -246 -131 -267 54 -580 349 -591 103
-4 212 31 278 88 37 32 197 178 216 196 12 13 20 8 59 -35 38 -41 222 -236
366 -386 l37 -40 -67 -61 c-161 -146 -200 -200 -223 -310 -39 -192 52 -380
226 -462 97 -46 214 -51 318 -14 68 23 113 56 240 172 l75 69 27 -29 c48 -52
251 -267 338 -358 l86 -90 -58 -54 c-154 -144 -210 -204 -232 -248 -71 -143
-58 -316 34 -442 92 -125 243 -183 411 -157 60 9 173 70 230 122 127 118 178
164 184 164 4 0 49 -46 101 -102 180 -193 264 -272 315 -297 28 -13 58 -28 67
-33 36 -17 171 -19 233 -3 256 67 384 351 264 588 -27 53 -43 72 -198 236
-136 145 -161 172 -161 178 0 2 26 27 57 56 31 29 64 59 73 67 9 8 38 35 66
59 27 25 92 84 145 132 52 49 107 98 122 109 l27 21 82 -87 c182 -193 234
-241 291 -267 107 -51 223 -59 327 -22 229 81 337 350 230 571 -22 45 -69 103
-168 209 -75 81 -138 151 -140 156 -2 5 2 14 10 21 7 7 58 53 113 103 55 49
102 92 105 95 3 3 52 48 109 100 l103 94 132 -136 c148 -154 173 -173 259
-200 186 -58 385 19 482 186 79 138 68 324 -26 453 -9 13 -63 73 -120 134 -57
61 -105 114 -107 119 -1 4 14 22 35 40 21 18 81 73 134 122 53 48 110 100 126
116 130 119 169 334 88 492 -100 198 -338 279 -543 185 -58 -27 -74 -39 -226
-179 -54 -50 -117 -108 -139 -128 -23 -21 -44 -38 -48 -38 -6 0 -53 49 -269
279 -154 164 -180 195 -177 202 1 4 58 57 127 120 252 227 280 258 315 359 19
55 25 146 13 213 -40 217 -259 363 -484 322 -95 -18 -161 -58 -279 -170 -11
-11 -65 -60 -120 -110 -55 -49 -111 -100 -125 -113 l-25 -23 -65 69 c-36 38
-123 131 -195 207 -71 76 -143 151 -159 168 l-30 29 31 27 c43 37 217 197 268
246 64 61 103 122 125 193 90 291 -156 574 -460 529 -103 -15 -174 -59 -326
-201 -6 -6 -47 -42 -90 -81 -43 -38 -87 -79 -98 -89 -19 -19 -20 -18 -74 40
-30 32 -91 98 -136 146 -147 156 -256 205 -417 187z m151 -229 c19 -10 92 -78
160 -151 181 -194 254 -272 265 -285 6 -6 78 -82 161 -170 83 -87 166 -175
184 -194 18 -19 71 -76 119 -125 277 -290 421 -445 421 -456 0 -3 -35 -36 -77
-75 -87 -79 -105 -95 -159 -144 -60 -56 -61 -56 -101 -13 -20 21 -100 106
-178 188 -79 83 -162 170 -185 195 -133 142 -296 316 -371 395 -48 49 -97 102
-110 116 -13 15 -88 93 -166 175 -257 270 -251 263 -260 349 -16 158 153 269
297 195z m1110 17 c82 -17 150 -107 152 -201 1 -66 -31 -114 -149 -222 -59
-54 -134 -124 -166 -154 l-59 -55 -139 145 c-76 80 -138 150 -139 156 0 6 15
24 33 40 17 16 77 70 132 119 55 50 115 104 133 120 58 52 124 68 202 52z
m-1108 -910 c99 -101 256 -274 255 -282 -2 -11 -266 -255 -567 -525 -63 -57
-155 -140 -204 -184 -121 -109 -129 -117 -165 -148 -17 -15 -90 -83 -163 -150
-73 -67 -178 -163 -232 -212 -55 -50 -125 -115 -155 -143 l-56 -53 -69 73
c-38 39 -102 106 -142 148 l-74 76 87 81 c49 44 100 91 114 104 14 12 67 61
118 108 52 47 103 93 115 103 24 21 155 139 196 177 15 14 76 70 136 125 60
55 134 123 164 150 30 28 77 71 105 97 27 25 64 58 80 73 17 15 55 50 85 79
31 28 76 69 101 91 111 99 223 201 233 212 14 16 22 16 38 0z m-1032 -118 c30
-14 81 -58 157 -137 l112 -117 -37 -35 c-107 -102 -260 -240 -266 -240 -4 0
-42 37 -84 82 -42 45 -89 94 -104 110 -69 71 -83 169 -36 248 58 98 160 134
258 89z m3222 -33 c131 -55 154 -237 44 -341 -25 -24 -176 -160 -242 -220 -6
-5 -33 -30 -60 -55 -26 -25 -62 -57 -80 -71 -27 -22 -102 -90 -289 -264 -18
-16 -72 -66 -120 -110 -49 -44 -93 -84 -99 -90 -6 -5 -63 -57 -126 -115 -63
-58 -120 -109 -126 -115 -6 -5 -50 -46 -99 -90 -48 -44 -101 -92 -118 -107
-37 -34 -46 -35 -72 -4 -11 12 -69 76 -130 140 -60 65 -111 121 -113 125 -1 4
32 40 75 78 126 115 136 124 183 167 25 23 115 104 200 181 175 158 191 173
371 336 52 47 168 153 259 235 91 81 193 175 226 207 139 132 210 157 316 113z
m-1646 -422 c71 -75 171 -180 221 -233 l93 -96 -43 -40 c-33 -32 -243 -223
-381 -347 -11 -10 -23 -18 -26 -18 -4 0 -29 24 -55 53 -26 28 -114 121 -194
206 -195 205 -208 221 -183 221 4 0 32 24 62 53 31 28 105 97 165 152 60 55
130 119 155 142 25 24 48 43 51 43 3 0 64 -61 135 -136z m-618 -531 c60 -65
125 -134 143 -153 18 -19 64 -69 103 -110 39 -42 100 -107 135 -145 36 -39
123 -133 195 -209 72 -77 160 -171 196 -209 36 -38 94 -100 130 -137 69 -71
311 -327 398 -420 28 -30 48 -57 44 -61 -4 -3 -73 -65 -153 -137 l-147 -131
-63 68 c-132 139 -356 378 -414 441 -33 35 -67 72 -75 80 -8 9 -51 54 -95 100
-44 47 -157 166 -251 265 -94 99 -186 196 -204 215 -18 19 -89 96 -159 170
-200 212 -201 213 -193 225 4 6 52 52 107 101 55 49 118 106 140 126 22 21 43
38 46 38 4 0 56 -53 117 -117z m2209 -249 c55 -60 113 -122 128 -139 50 -55
249 -268 346 -369 53 -56 107 -113 120 -127 13 -15 92 -98 175 -185 226 -237
224 -236 245 -279 36 -77 16 -178 -47 -237 -75 -70 -200 -68 -276 5 -41 41
-339 356 -498 527 -51 55 -174 185 -294 311 -61 63 -157 164 -213 225 -55 60
-131 140 -169 179 l-67 69 129 121 c71 67 138 130 149 142 l20 20 75 -77 c41
-43 121 -126 177 -186z m-4215 172 c28 -13 179 -163 208 -206 3 -4 70 -77 150
-161 80 -84 183 -194 230 -243 47 -49 135 -142 196 -205 61 -64 147 -154 190
-200 43 -46 117 -125 164 -174 l86 -89 -60 -57 c-34 -31 -63 -58 -66 -61 -3
-3 -44 -40 -91 -82 l-86 -78 -134 142 c-74 78 -172 183 -219 232 -169 180
-237 252 -307 326 -39 41 -90 95 -113 120 -23 25 -104 110 -180 190 -208 220
-219 232 -241 274 -25 47 -27 131 -4 177 53 101 175 143 277 95z m5256 -91
c65 -35 101 -86 109 -153 9 -77 -11 -126 -75 -191 -88 -88 -279 -261 -289
-261 -4 0 -36 30 -70 68 -34 37 -96 102 -136 145 l-74 79 56 51 c31 29 58 54
61 57 50 54 238 211 258 216 15 3 32 7 37 10 19 7 95 -6 123 -21z m-3538 -435
c69 -73 131 -139 138 -146 6 -7 12 -16 12 -21 0 -4 -50 -53 -112 -108 -61 -55
-116 -105 -122 -110 -6 -6 -56 -51 -111 -100 -55 -49 -102 -92 -105 -95 -34
-35 -40 -34 -78 7 -20 23 -96 103 -168 179 -209 221 -234 248 -234 255 0 3 28
30 62 60 34 29 71 63 82 74 12 11 91 83 176 160 85 77 157 144 159 149 4 10
59 -47 301 -304z m1930 50 c103 -109 274 -292 291 -312 l20 -23 -48 -45 c-48
-44 -101 -93 -283 -260 -51 -47 -98 -88 -105 -92 -12 -7 -59 40 -389 387 l-75
80 52 50 c52 50 86 81 271 250 138 126 120 120 180 57 28 -30 67 -72 86 -92z
m-3540 -526 c33 -34 60 -65 60 -70 0 -5 -30 -36 -66 -69 -37 -33 -85 -77 -108
-98 -54 -50 -87 -67 -145 -74 -53 -6 -118 17 -160 57 -33 32 -61 98 -61 146 0
84 21 114 196 271 l69 63 78 -83 c43 -45 105 -110 137 -143z m2116 -209 c-74
-70 -94 -89 -261 -239 -49 -45 -92 -84 -95 -87 -3 -3 -48 -43 -100 -89 -52
-47 -102 -91 -110 -100 -8 -8 -58 -53 -110 -100 -52 -47 -102 -92 -110 -100
-8 -8 -64 -60 -125 -115 -60 -54 -121 -111 -135 -125 -60 -60 -193 -172 -218
-181 -103 -39 -210 0 -258 95 -30 57 -31 130 -3 187 21 43 -9 14 1043 968 137
124 254 232 260 239 8 9 44 -22 154 -135 l142 -148 -74 -70z m1946 178 c29
-31 90 -95 135 -142 l82 -86 -37 -34 c-20 -19 -57 -52 -82 -74 -25 -23 -90
-82 -144 -131 -114 -105 -108 -99 -166 -150 -25 -22 -88 -79 -140 -126 -52
-48 -178 -162 -280 -255 -102 -92 -214 -195 -250 -229 -36 -34 -110 -101 -165
-151 -55 -49 -122 -111 -150 -136 -27 -26 -70 -66 -95 -88 l-45 -41 -143 147
-142 148 67 64 c86 82 143 134 268 246 118 106 101 91 205 185 46 41 88 80 94
85 6 6 101 91 211 190 110 98 256 231 325 295 69 63 166 152 215 197 50 44
108 97 129 117 22 19 43 33 48 30 4 -3 32 -30 60 -61z m-1472 -533 c69 -73
141 -151 161 -172 l37 -39 -52 -47 c-28 -26 -78 -71 -111 -102 -63 -58 -240
-218 -260 -235 -6 -5 -25 -23 -42 -38 l-30 -28 -46 48 c-25 26 -62 66 -82 88
-46 49 -176 187 -262 276 l-63 67 102 93 c56 52 127 117 157 144 31 28 80 73
111 101 30 28 71 65 90 82 l35 32 65 -68 c36 -38 121 -128 190 -202z m-846
-382 c27 -29 110 -118 186 -198 75 -80 161 -172 191 -204 82 -89 110 -119 290
-307 92 -96 181 -189 198 -208 17 -18 96 -101 175 -185 221 -233 244 -259 260
-291 52 -109 4 -233 -108 -280 -47 -20 -119 -17 -166 6 -31 15 -168 153 -435
439 -113 121 -196 209 -285 305 -106 113 -161 171 -247 261 -70 74 -255 270
-355 378 -32 33 -58 64 -58 67 0 4 37 40 82 80 44 41 108 100 142 131 34 32
66 58 72 58 5 0 32 -24 58 -52z m2150 -94 c39 -42 97 -103 129 -137 32 -34 67
-79 78 -100 87 -168 -83 -352 -260 -281 -28 11 -83 60 -181 162 -131 137 -153
165 -131 174 8 3 111 95 246 220 22 21 42 38 44 38 2 0 36 -34 75 -76z m-2052
-913 c2 -5 59 -68 128 -141 69 -73 126 -136 128 -139 3 -9 -176 -176 -222
-207 -139 -95 -326 1 -326 166 0 80 34 125 206 278 57 50 79 61 86 43z"/>
</g>
</svg>
